<?xml version="1.0" encoding="UTF-8" ?>
<svg xmlns="http://www.w3.org/2000/svg" width="100" height="100">
  <circle cx="50" cy="50" r="50" fill="white" />
  <g transform="matrix(7.662867,0,0,7.662867,-96.510683,-84.34588)">
    <circle cx="15.345834" cy="17.4625" r="0.79374999" />
    <polyline
      points="7,19 7,2"
      stroke="black"
      stroke-width="1.75"
      transform="matrix(0.26458333,0,0,0.26458333,13.49375,12.435417)"
    />
    <path
      d="m 15.345833,15.478125 a 1.4552083,1.4552083 0 0 1 1.455209,-1.455208 H 17.4625"
      fill="none"
      stroke="black"
      stroke-width="0.463021"
    />
    <polygon
      points="14,2.5 20,6 14,9.5 "
      transform="matrix(0.26458333,0,0,0.26458333,13.49375,12.435417)"
    />
  </g>
  <path
    d="m 47.025137,39.860124 q 0.683747,1.570768 0.683747,3.769845 0,1.016379 -0.147855,2.162116 -0.609831,4.231839 -2.624111,6.504836 -2.272993,2.587147 -5.04494,2.864345 -0.572871,0.03704 -0.942463,0.03704 -0.498951,0 -1.053339,-0.05545 -2.291475,-0.166337 -4.084,-2.845863 -0.979421,-1.62621 -0.979421,-4.287278 0,-0.776144 0.0924,-1.644687 0.443512,-4.804706 3.270897,-7.595132 1.94036,-1.866444 3.714406,-2.06972 0.776145,-0.129358 1.51533,-0.129358 h 0.166299 q 3.585052,0 5.433015,3.289378 z m -7.669051,12.141121 q 1.47837,0.05545 2.439315,-1.367494 0.905499,-1.422932 1.47837,-4.102477 0.591349,-3.049142 -0.09241,-5.19278 -0.591348,-1.718608 -1.884922,-1.496852 -1.607732,-0.221745 -2.845867,1.884926 -0.923981,1.755564 -1.275094,3.991601 -0.314154,2.679549 -0.03696,4.102481 0.480471,2.531709 2.217556,2.180595 z m 15.559859,-9.498532 -4.084003,-0.110891 q 0.110891,-2.624107 2.790425,-4.435113 2.402355,-1.349014 4.841666,-1.349014 h 0.203263 q 3.123058,0.240234 4.509033,2.236035 0.572867,0.997901 0.572867,2.365395 0,0.184781 -0.01852,0.388074 0,1.201175 -0.314154,2.624107 l -1.903404,10.736671 h -4.398153 l 0.46199,-2.162117 q -1.51533,2.383873 -4.213357,2.402351 -4.287277,-0.05545 -4.545993,-4.693826 0.166299,-4.250317 3.843764,-5.876526 2.420833,-0.97942 6.504836,-0.997902 l 0.221745,-1.533808 q 0.203263,-2.0882 -1.755568,-2.217558 -1.921882,0.01852 -2.716505,2.624111 z m 3.695928,4.194875 -1.441414,-0.01852 q -4.435113,0.646787 -4.398153,3.825286 0.332636,1.755564 1.847962,1.718604 2.919784,-0.480468 3.991605,-5.525412 z m 19.052505,8.445196 h -4.194879 l 0.388074,-2.383872 q -1.016383,1.995802 -2.587151,2.494752 -0.813105,0.221745 -1.995802,0.295673 -1.774042,-0.240227 -2.383873,-1.182698 -1.681648,-1.681647 -1.958842,-4.878625 -0.05545,-0.739185 -0.05545,-1.459892 0,-2.291475 0.776145,-4.730786 0.923981,-2.661067 2.346913,-4.139441 2.0882,-2.402352 3.917685,-2.439311 3.344814,-0.314154 4.342715,2.771948 l 1.737086,-9.609414 h 4.379675 z M 73.395583,39.989482 q -2.236037,0.129336 -4.250317,6.615708 -0.110892,5.22974 1.94036,5.469975 3.49265,-0.554389 4.047043,-6.338518 0.905499,-5.525412 -1.737086,-5.747165 z"
  />
  <path
    d="m 19.897108,59.479622 h 4.139439 l -1.792525,9.128943 q 1.53381,-2.328435 4.028561,-2.291475 2.864344,0.03704 4.379675,3.695929 0.351114,1.44141 0.351114,2.938261 v 0.406553 q 0,2.901305 -1.182697,5.950443 -1.238136,3.196978 -3.455693,4.878626 -1.53381,0.813105 -3.012181,0.813105 -0.776145,0 -1.53381,-0.221745 -1.700128,-0.59136 -2.291476,-2.420844 l -0.332633,2.383872 h -4.194879 z m 4.934063,10.311641 q -3.141538,0.295672 -4.06552,5.65477 -1.127258,6.393956 1.737086,6.227638 2.827384,-0.03704 4.06552,-6.67115 0.591349,-4.69383 -1.737086,-5.211258 z m 21.695095,-0.147818 q 0.683747,1.570768 0.683747,3.769845 0,1.016383 -0.147855,2.16212 -0.609827,4.231835 -2.624107,6.504832 -2.272997,2.587151 -5.044944,2.864345 -0.572867,0.03704 -0.942459,0.03704 -0.498951,0 -1.053341,-0.05545 -2.291475,-0.166299 -4.084001,-2.845863 -0.97942,-1.62621 -0.97942,-4.287277 0,-0.776145 0.0924,-1.644688 0.443511,-4.804706 3.270896,-7.595131 1.940362,-1.866445 3.714409,-2.069719 0.776145,-0.129373 1.51533,-0.129373 h 0.166299 q 3.585052,0 5.433014,3.289376 z m -7.669047,12.141121 q 1.47837,0.05545 2.439311,-1.36749 0.905503,-1.422936 1.47837,-4.102481 0.591348,-3.049141 -0.09241,-5.19278 -0.591348,-1.718604 -1.884922,-1.496852 -1.607728,-0.221745 -2.845863,1.884926 -0.923984,1.755565 -1.275097,3.991601 -0.314154,2.679549 -0.03696,4.102481 0.480471,2.531709 2.217559,2.180595 z M 62.751393,69.643445 q 0.683747,1.570768 0.683747,3.769845 0,1.016383 -0.147817,2.16212 -0.609831,4.231835 -2.624111,6.504832 -2.272993,2.587151 -5.04494,2.864345 -0.572871,0.03704 -0.942463,0.03704 -0.498951,0 -1.05334,-0.05545 -2.291474,-0.166299 -4.083999,-2.845863 -0.979419,-1.62621 -0.979419,-4.287277 0,-0.776145 0.09241,-1.644688 0.443508,-4.804706 3.270894,-7.595131 1.940364,-1.866445 3.714406,-2.069719 0.776145,-0.129373 1.515334,-0.129373 h 0.166299 q 3.585052,0 5.433014,3.289376 z m -7.669051,12.141121 q 1.478374,0.05545 2.439315,-1.36749 0.905499,-1.422936 1.47837,-4.102481 0.591348,-3.049141 -0.09241,-5.19278 -0.591348,-1.718604 -1.884922,-1.496852 -1.607728,-0.221745 -2.845867,1.884926 -0.923981,1.755565 -1.275092,3.991601 -0.314154,2.679549 -0.03704,4.102481 0.480468,2.531709 2.217554,2.180595 z m 18.719873,-22.840832 -2.624108,13.23142 5.433015,-5.58085 h 5.765647 l -7.595131,7.558171 6.061319,10.625794 -5.303656,-0.01852 -4.952542,-9.77573 -1.755568,9.812686 h -4.342715 l 5.007983,-25.853013 z"
  />
</svg>
